<svg xmlns="http://www.w3.org/2000/svg" width="30.237" height="28" viewBox="0 0 30.237 28"><defs><style>.a{fill:#f9bd16;}</style></defs><path class="a" d="M30.067,19.994a1.669,1.669,0,0,0-.011-1.486,1.549,1.549,0,0,0-.564-1.446l-1.368-1.126a2.042,2.042,0,0,0-2.836,0q-5.311,5.91-11.082,11.341c-2.854-2.666-5.742-5.3-8.61-7.929a1.974,1.974,0,0,0-3.1.467A5.237,5.237,0,0,0,.212,21.889a1.586,1.586,0,0,0,0,1.585c1.851,3.319,5.43,6.238,8.372,8.924-.394.352-.785.708-1.186,1.053C3.434,36.855.76,39.014,5.72,42.5c.067.047.135.037.2.064a1.1,1.1,0,0,0,.292.092.813.813,0,0,0,.1,0,1.093,1.093,0,0,0,.306.014c2.667-.523,5.147-2.613,7.4-4.914a27.652,27.652,0,0,0,7.093,5.45,1.7,1.7,0,0,0,1.81-.286,1.985,1.985,0,0,0,1.869-1.135c.053-.033.088-.052.146-.088a2.023,2.023,0,0,0,.4-3.127c-1.916-2.221-3.953-4.332-6.03-6.405C23.044,28.519,27.713,24.579,30.067,19.994Z" transform="translate(0.001 -15.361)"/></svg>