<svg xmlns="http://www.w3.org/2000/svg" width="8.912" height="17.643" viewBox="0 0 8.912 17.643"><defs><style>.a{fill:#fff;}</style></defs><path class="a" d="M76.988,9.4h1.934v7.962a.285.285,0,0,0,.285.285h3.279a.285.285,0,0,0,.285-.285V9.434h2.223a.285.285,0,0,0,.283-.252l.338-2.931a.284.284,0,0,0-.283-.317H82.77V4.1c0-.554.3-.835.886-.835h1.674a.285.285,0,0,0,.285-.285V.287A.285.285,0,0,0,85.331,0H83.023c-.016,0-.052,0-.106,0a4.422,4.422,0,0,0-2.891,1.09,3.032,3.032,0,0,0-1.008,2.7V5.934h-2.03a.285.285,0,0,0-.285.285V9.112A.285.285,0,0,0,76.988,9.4Z" transform="translate(-76.703)"/></svg>