<svg xmlns="http://www.w3.org/2000/svg" width="17.642" height="17.643" viewBox="0 0 17.642 17.643"><defs><style>.a{fill:#fff;}</style></defs><path class="a" d="M9,17.644H8.82c-1.383,0-2.661-.032-3.9-.107A5.218,5.218,0,0,1,1.909,16.4,4.828,4.828,0,0,1,.286,13.779,11.605,11.605,0,0,1,.02,11.008C.011,10.364,0,9.6,0,8.824S.011,7.282.02,6.638A11.607,11.607,0,0,1,.286,3.866,4.828,4.828,0,0,1,1.909,1.247,5.218,5.218,0,0,1,4.916.109C6.159.033,7.437,0,8.823,0s2.661.032,3.9.107a5.218,5.218,0,0,1,3.008,1.138,4.827,4.827,0,0,1,1.622,2.619,11.606,11.606,0,0,1,.266,2.771c.009.644.018,1.407.02,2.183v0c0,.776-.011,1.539-.02,2.183a11.6,11.6,0,0,1-.266,2.771A4.827,4.827,0,0,1,15.734,16.4a5.218,5.218,0,0,1-3.008,1.138c-1.19.072-2.412.108-3.731.108ZM8.82,16.265c1.36,0,2.61-.031,3.823-.1a3.8,3.8,0,0,0,2.22-.831,3.48,3.48,0,0,0,1.158-1.892,10.558,10.558,0,0,0,.224-2.449c.009-.64.018-1.4.02-2.166s-.011-1.526-.02-2.166a10.56,10.56,0,0,0-.224-2.449,3.48,3.48,0,0,0-1.158-1.892,3.8,3.8,0,0,0-2.22-.831c-1.213-.074-2.463-.108-3.82-.1s-2.609.031-3.823.1a3.8,3.8,0,0,0-2.22.831A3.48,3.48,0,0,0,1.622,4.207,10.56,10.56,0,0,0,1.4,6.656c-.009.64-.018,1.4-.02,2.168s.011,1.524.02,2.165a10.558,10.558,0,0,0,.224,2.449A3.48,3.48,0,0,0,2.78,15.33,3.8,3.8,0,0,0,5,16.16C6.213,16.234,7.463,16.269,8.82,16.265ZM8.787,13.13a4.307,4.307,0,1,1,4.307-4.307A4.312,4.312,0,0,1,8.787,13.13Zm0-7.236a2.929,2.929,0,1,0,2.929,2.929A2.932,2.932,0,0,0,8.787,5.894Zm4.79-2.757A1.034,1.034,0,1,0,14.61,4.171,1.034,1.034,0,0,0,13.576,3.137Zm0,0" transform="translate(0 -0.001)"/></svg>