<svg xmlns="http://www.w3.org/2000/svg" width="17.643" height="17.643" viewBox="0 0 17.643 17.643"><defs><style>.a{fill:#fff;}</style></defs><path class="a" d="M8.821,17.643A8.821,8.821,0,1,0,0,8.821,8.825,8.825,0,0,0,8.821,17.643ZM12.4,12.979h0c-.593,0-2.467-2.079-7.733-1a2.271,2.271,0,0,1-.423.093.584.584,0,0,1-.078-1.16,11.357,11.357,0,0,1,8.43.932.592.592,0,0,1-.195,1.134Zm.958-2.333c-.083-.022-.059.051-.439-.149A11.527,11.527,0,0,0,4.435,9.451a1.461,1.461,0,0,1-.423.093.723.723,0,0,1-.138-1.426,12.886,12.886,0,0,1,9.775,1.134.742.742,0,0,1,.4.7A.69.69,0,0,1,13.361,10.647ZM3.343,5.144C6.668,4.171,11.7,4.478,14.829,6.3a.865.865,0,0,1-.366,1.632h0A.819.819,0,0,1,14,7.8c-2.531-1.511-7.06-1.874-9.99-1.056a1.712,1.712,0,0,1-.459.092.821.821,0,0,1-.828-.839.84.84,0,0,1,.619-.849Z"/></svg>