<svg xmlns="http://www.w3.org/2000/svg" width="25.198" height="17.643" viewBox="0 0 25.198 17.643"><defs><style>.a{fill:#fff;}</style></defs><path class="a" d="M24.68-3.321a3.157,3.157,0,0,0-2.221-2.221c-1.972-.54-9.859-.54-9.859-.54s-7.887,0-9.859.519A3.221,3.221,0,0,0,.52-3.321,33.263,33.263,0,0,0,0,2.739,33.141,33.141,0,0,0,.52,8.8a3.157,3.157,0,0,0,2.221,2.221c1.992.54,9.859.54,9.859.54s7.887,0,9.859-.519A3.157,3.157,0,0,0,24.68,8.821,33.274,33.274,0,0,0,25.2,2.76a31.575,31.575,0,0,0-.519-6.081ZM10.088,6.517V-1.038l6.559,3.778Zm0,0" transform="translate(-0.001 6.082)"/></svg>